<svg width="124" height="36" viewBox="0 0 124 36" fill="none" xmlns="http://www.w3.org/2000/svg">
<g id="ced-logo-white 1" clip-path="url(#clip0_245_17651)">
<path id="Vector" d="M80.1517 0H43.8484V7.19968H80.1517V0Z" fill="#7841B2"/>
<path id="Vector_2" d="M80.1517 14.4001H43.8484V21.5998H80.1517V14.4001Z" fill="#3797D3"/>
<path id="Vector_3" d="M80.1517 28.8003H43.8484V36H80.1517V28.8003Z" fill="#7FC24B"/>
<path id="Vector_4" d="M9.36066 7.19968H36.5881V0H9.36066C6.95603 0.00715151 4.65195 0.957589 2.95161 2.64376C1.25128 4.32992 0.292856 6.61481 0.285645 8.9994V27.0006C0.292856 29.3852 1.25128 31.6701 2.95161 33.3562C4.65195 35.0424 6.95603 35.9929 9.36066 36H36.5881V28.8003H9.36066C8.88134 28.7939 8.42346 28.6022 8.0845 28.2661C7.74554 27.93 7.55226 27.4759 7.54581 27.0006V8.9994C7.5473 8.52254 7.73898 8.06562 8.07901 7.72843C8.41903 7.39123 8.87979 7.20115 9.36066 7.19968Z" fill="#333333"/>
<path id="Vector_5" d="M123.711 8.9994V27.0006C123.704 29.3852 122.745 31.6701 121.045 33.3562C119.345 35.0424 117.041 35.9929 114.636 36H87.4119V0H114.639C117.043 0.00799228 119.347 0.958811 121.046 2.64489C122.746 4.33097 123.704 6.61536 123.711 8.9994ZM114.636 7.19968H94.672V28.8003H114.639C115.119 28.7988 115.58 28.6088 115.92 28.2716C116.26 27.9344 116.452 27.4775 116.453 27.0006V8.9994C116.447 8.52407 116.254 8.07002 115.915 7.73388C115.576 7.39774 115.118 7.20607 114.639 7.19968" fill="#333333"/>
</g>
<defs>
<clipPath id="clip0_245_17651">
<rect width="123.429" height="36" fill="white" transform="translate(0.285645)"/>
</clipPath>
</defs>
</svg>
